<svg width="50" height="50" viewBox="0 0 50 50" fill="none" xmlns="http://www.w3.org/2000/svg">
<circle cx="25" cy="25" r="25" fill="#F7F3F1"/>
<circle cx="25" cy="20" r="5" fill="#D1BE5E"/>
<ellipse cx="24.5" cy="38" rx="11.5" ry="5" fill="#D1BE5E"/>
<path d="M12.1 36.25C14.2 34.7833 16.2833 33.6583 18.35 32.875C20.4167 32.0917 22.6333 31.7 25 31.7C27.3667 31.7 29.5917 32.0917 31.675 32.875C33.7583 33.6583 35.85 34.7833 37.95 36.25C39.4167 34.45 40.4583 32.6333 41.075 30.8C41.6917 28.9667 42 27.0333 42 25C42 20.1667 40.375 16.125 37.125 12.875C33.875 9.625 29.8333 8 25 8C20.1667 8 16.125 9.625 12.875 12.875C9.625 16.125 8 20.1667 8 25C8 27.0333 8.31667 28.9667 8.95 30.8C9.58333 32.6333 10.6333 34.45 12.1 36.25ZM25 26.5C23.0667 26.5 21.4417 25.8417 20.125 24.525C18.8083 23.2083 18.15 21.5833 18.15 19.65C18.15 17.7167 18.8083 16.0917 20.125 14.775C21.4417 13.4583 23.0667 12.8 25 12.8C26.9333 12.8 28.5583 13.4583 29.875 14.775C31.1917 16.0917 31.85 17.7167 31.85 19.65C31.85 21.5833 31.1917 23.2083 29.875 24.525C28.5583 25.8417 26.9333 26.5 25 26.5ZM25 45C22.2667 45 19.6833 44.475 17.25 43.425C14.8167 42.375 12.6917 40.9417 10.875 39.125C9.05833 37.3083 7.625 35.1833 6.575 32.75C5.525 30.3167 5 27.7333 5 25C5 22.2333 5.525 19.6417 6.575 17.225C7.625 14.8083 9.05833 12.6917 10.875 10.875C12.6917 9.05833 14.8167 7.625 17.25 6.575C19.6833 5.525 22.2667 5 25 5C27.7667 5 30.3583 5.525 32.775 6.575C35.1917 7.625 37.3083 9.05833 39.125 10.875C40.9417 12.6917 42.375 14.8083 43.425 17.225C44.475 19.6417 45 22.2333 45 25C45 27.7333 44.475 30.3167 43.425 32.75C42.375 35.1833 40.9417 37.3083 39.125 39.125C37.3083 40.9417 35.1917 42.375 32.775 43.425C30.3583 44.475 27.7667 45 25 45ZM25 42C26.8333 42 28.625 41.7333 30.375 41.2C32.125 40.6667 33.85 39.7333 35.55 38.4C33.85 37.2 32.1167 36.2833 30.35 35.65C28.5833 35.0167 26.8 34.7 25 34.7C23.2 34.7 21.4167 35.0167 19.65 35.65C17.8833 36.2833 16.15 37.2 14.45 38.4C16.15 39.7333 17.875 40.6667 19.625 41.2C21.375 41.7333 23.1667 42 25 42ZM25 23.5C26.1333 23.5 27.0583 23.1417 27.775 22.425C28.4917 21.7083 28.85 20.7833 28.85 19.65C28.85 18.5167 28.4917 17.5917 27.775 16.875C27.0583 16.1583 26.1333 15.8 25 15.8C23.8667 15.8 22.9417 16.1583 22.225 16.875C21.5083 17.5917 21.15 18.5167 21.15 19.65C21.15 20.7833 21.5083 21.7083 22.225 22.425C22.9417 23.1417 23.8667 23.5 25 23.5Z" fill="#690303"/>
</svg>
