<svg width="50" height="50" viewBox="0 0 50 50" fill="none" xmlns="http://www.w3.org/2000/svg">
<path d="M2.65625 28.9583C1.75347 27.4653 1.08507 25.9635 0.651042 24.4531C0.217014 22.9427 0 21.4583 0 20C0 16.1806 1.33681 12.934 4.01042 10.2604C6.68403 7.58681 9.93055 6.25 13.75 6.25C15.9375 6.25 18.0122 6.70139 19.974 7.60417C21.9358 8.50694 23.6111 9.73958 25 11.3021C26.3889 9.73958 28.0642 8.50694 30.026 7.60417C31.9878 6.70139 34.0625 6.25 36.25 6.25C40.0694 6.25 43.316 7.58681 45.9896 10.2604C48.6632 12.934 50 16.1806 50 20C50 21.4583 49.783 22.934 49.349 24.4271C48.9149 25.9201 48.2465 27.4132 47.3437 28.9062C46.9965 28.4896 46.6059 28.1337 46.1719 27.8385C45.7378 27.5434 45.2778 27.2917 44.7917 27.0833C45.4861 25.8681 46.0069 24.6701 46.3542 23.4896C46.7014 22.309 46.875 21.1458 46.875 20C46.875 17.0486 45.842 14.5399 43.776 12.474C41.7101 10.408 39.2014 9.375 36.25 9.375C34.3403 9.375 32.4566 9.93924 30.599 11.0677C28.7413 12.1962 26.875 13.9062 25 16.1979C23.125 13.9062 21.2587 12.1962 19.401 11.0677C17.5434 9.93924 15.6597 9.375 13.75 9.375C10.7986 9.375 8.28993 10.408 6.22396 12.474C4.15799 14.5399 3.125 17.0486 3.125 20C3.125 21.1458 3.29861 22.309 3.64583 23.4896C3.99306 24.6701 4.51389 25.8681 5.20833 27.0833C4.72222 27.2917 4.26215 27.5521 3.82812 27.8646C3.3941 28.1771 3.00347 28.5417 2.65625 28.9583ZM0 45.8333V43.0729C0 41.7187 0.729167 40.625 2.1875 39.7917C3.64583 38.9583 5.52083 38.5417 7.8125 38.5417C8.26389 38.5417 8.68056 38.5503 9.0625 38.5677C9.44444 38.5851 9.82639 38.6285 10.2083 38.6979C9.93056 39.2882 9.72222 39.8872 9.58333 40.4948C9.44444 41.1024 9.375 41.7535 9.375 42.4479V45.8333H0ZM12.5 45.8333V42.4479C12.5 40.191 13.6545 38.3681 15.9635 36.9792C18.2726 35.5903 21.2847 34.8958 25 34.8958C28.75 34.8958 31.7708 35.5903 34.0625 36.9792C36.3542 38.3681 37.5 40.191 37.5 42.4479V45.8333H12.5ZM40.625 45.8333V42.4479C40.625 41.7535 40.5642 41.1024 40.4427 40.4948C40.3212 39.8872 40.1215 39.2882 39.8437 38.6979C40.2257 38.6285 40.6076 38.5851 40.9896 38.5677C41.3715 38.5503 41.7708 38.5417 42.1875 38.5417C44.5139 38.5417 46.3976 38.9583 47.8385 39.7917C49.2795 40.625 50 41.7187 50 43.0729V45.8333H40.625ZM25 38.0208C22.2222 38.0208 19.9653 38.4375 18.2292 39.2708C16.4931 40.1042 15.625 41.1632 15.625 42.4479V42.7083H34.375V42.3958C34.375 41.1458 33.5156 40.1042 31.7969 39.2708C30.0781 38.4375 27.8125 38.0208 25 38.0208ZM7.8125 36.9792C6.80556 36.9792 5.94618 36.6233 5.23437 35.9115C4.52257 35.1997 4.16667 34.3403 4.16667 33.3333C4.16667 32.3264 4.52257 31.467 5.23437 30.7552C5.94618 30.0434 6.80556 29.6875 7.8125 29.6875C8.81944 29.6875 9.67882 30.0434 10.3906 30.7552C11.1024 31.467 11.4583 32.3264 11.4583 33.3333C11.4583 34.3403 11.1024 35.1997 10.3906 35.9115C9.67882 36.6233 8.81944 36.9792 7.8125 36.9792ZM42.1875 36.9792C41.1806 36.9792 40.3212 36.6233 39.6094 35.9115C38.8976 35.1997 38.5417 34.3403 38.5417 33.3333C38.5417 32.3264 38.8976 31.467 39.6094 30.7552C40.3212 30.0434 41.1806 29.6875 42.1875 29.6875C43.1944 29.6875 44.0538 30.0434 44.7656 30.7552C45.4774 31.467 45.8333 32.3264 45.8333 33.3333C45.8333 34.3403 45.4774 35.1997 44.7656 35.9115C44.0538 36.6233 43.1944 36.9792 42.1875 36.9792ZM25 33.3333C23.2639 33.3333 21.7882 32.7257 20.5729 31.5104C19.3576 30.2951 18.75 28.8194 18.75 27.0833C18.75 25.3125 19.3576 23.8281 20.5729 22.6302C21.7882 21.4323 23.2639 20.8333 25 20.8333C26.7708 20.8333 28.2552 21.4323 29.4531 22.6302C30.651 23.8281 31.25 25.3125 31.25 27.0833C31.25 28.8194 30.651 30.2951 29.4531 31.5104C28.2552 32.7257 26.7708 33.3333 25 33.3333ZM25 23.9583C24.1319 23.9583 23.3941 24.2535 22.7865 24.8437C22.1788 25.434 21.875 26.1806 21.875 27.0833C21.875 27.9514 22.1788 28.6892 22.7865 29.2969C23.3941 29.9045 24.1319 30.2083 25 30.2083C25.9028 30.2083 26.6493 29.9045 27.2396 29.2969C27.8299 28.6892 28.125 27.9514 28.125 27.0833C28.125 26.1806 27.8299 25.434 27.2396 24.8437C26.6493 24.2535 25.9028 23.9583 25 23.9583Z" fill="#31101C"/>
</svg>
