<svg width="50" height="50" viewBox="0 0 50 50" fill="none" xmlns="http://www.w3.org/2000/svg">
<mask id="mask0_12_42" style="mask-type:luminance" maskUnits="userSpaceOnUse" x="0" y="0" width="50" height="50">
<path d="M0 3.8147e-06H50V50H0V3.8147e-06Z" fill="white"/>
</mask>
<g mask="url(#mask0_12_42)">
<path d="M35.0864 8.1892H34.5117C33.127 4.27182 29.3916 1.46488 24.9999 1.46488C20.6084 1.46488 16.8729 4.27182 15.4882 8.1892H14.9135C13.0566 8.1892 11.5513 9.69447 11.5513 11.5513C11.5513 13.4082 13.0566 14.9135 14.9135 14.9135H15.4882C16.8729 18.8309 20.6084 21.6378 24.9999 21.6378C29.3916 21.6378 33.127 18.8309 34.5117 14.9135H35.0864C36.9434 14.9135 38.4486 13.4082 38.4486 11.5513C38.4486 9.69447 36.9434 8.1892 35.0864 8.1892Z" stroke="#31101C" stroke-width="2" stroke-miterlimit="10"/>
<path d="M33.0697 17.6025C36.3361 20.0561 38.4489 23.9624 38.4489 28.3622V35.0865C38.4489 42.514 32.4277 48.5351 25.0001 48.5351C17.5727 48.5351 11.5515 42.514 11.5515 35.0865V28.3622C11.5515 23.9624 13.6643 20.0561 16.9306 17.6025" stroke="#31101C" stroke-width="2" stroke-miterlimit="10"/>
<path d="M15.3232 18.9791C17.2043 28.1716 25.3378 35.0865 35.0864 35.0865H38.4485" stroke="#31101C" stroke-width="2" stroke-miterlimit="10"/>
<path d="M34.6723 18.9999C33.4958 24.7185 29.8991 29.5536 25.0001 32.3876" stroke="#31101C" stroke-width="2" stroke-miterlimit="10"/>
<path d="M25 1.46485C26.8568 1.46485 28.3622 2.97012 28.3622 4.82705C28.3622 6.68389 26.8568 8.18916 25 8.18916C24.0716 8.18916 23.2311 7.8128 22.6226 7.2044" stroke="#31101C" stroke-width="2" stroke-miterlimit="10"/>
</g>
</svg>
