<svg width="512" height="512" viewBox="0 0 512 512" fill="none" xmlns="http://www.w3.org/2000/svg">
<path d="M255.998 451.959C253.089 451.959 117.336 451.959 117.336 451.959C108.566 451.959 101.254 447.859 97.775 440.991C94.297 434.124 95.319 425.802 100.509 418.731L117.936 395.057C80.985 358.36 60.041 308.423 60.041 256C60.041 147.948 147.947 60.041 255.998 60.041C364.052 60.041 451.959 147.948 451.959 256C451.959 364.053 364.052 451.959 255.998 451.959ZM255.998 421.959C347.509 421.959 421.959 347.511 421.959 256C421.959 164.49 347.509 90.041 255.998 90.041C164.489 90.041 90.041 164.49 90.041 256C90.041 304.346 111.075 350.196 147.75 381.796L158.274 390.863L135.384 421.959H255.998Z" fill="#31101C"/>
<path d="M203.758 256C203.758 267.53 194.412 276.878 182.881 276.878C171.348 276.878 162 267.53 162 256C162 244.467 171.348 235.119 182.881 235.119C194.412 235.119 203.758 244.468 203.758 256Z" fill="#31101C"/>
<path d="M256.008 276.878C267.539 276.878 276.886 267.531 276.886 256C276.886 244.469 267.539 235.122 256.008 235.122C244.477 235.122 235.13 244.469 235.13 256C235.13 267.531 244.477 276.878 256.008 276.878Z" fill="#31101C"/>
<path d="M329.139 276.879C340.67 276.879 350.018 267.531 350.018 256C350.018 244.469 340.67 235.121 329.139 235.121C317.608 235.121 308.26 244.469 308.26 256C308.26 267.531 317.608 276.879 329.139 276.879Z" fill="#31101C"/>
</svg>
