<svg width="50" height="50" viewBox="0 0 50 50" fill="none" xmlns="http://www.w3.org/2000/svg">
<g clip-path="url(#clip0_12_61)">
<path d="M7.08358 25.5462C6.78638 25.5462 6.49219 25.4147 6.29389 25.1632C4.46249 22.8363 3.45392 19.9195 3.45392 16.9505C4.01167 -0.60142 29.463 -0.592383 30.0187 16.951C29.9259 18.1408 29.9294 22.3428 28.0588 21.8081C27.5332 21.6319 27.2496 21.0626 27.4258 20.537C27.8138 19.3793 28.0106 18.1729 28.0106 16.951C28.0106 10.7364 22.9517 5.67996 16.7331 5.67996C7.50428 5.50425 2.04422 16.7934 7.87227 23.9222C8.40141 24.5467 7.88884 25.5728 7.08358 25.5462Z" fill="#31101C"/>
<path d="M16.7331 30.2362C14.6311 30.2362 12.5432 29.7326 10.6952 28.7798C10.2022 28.5258 10.0089 27.9203 10.263 27.4278C10.517 26.9348 11.1234 26.741 11.6154 26.9956C13.2028 27.8139 14.9243 28.2286 16.7331 28.2286C18.2969 28.2286 19.8065 27.9148 21.2202 27.2968C21.7278 27.0739 22.3202 27.3063 22.5426 27.8139C22.7645 28.3219 22.533 28.9138 22.025 29.1362C20.3562 29.8662 18.5755 30.2362 16.7331 30.2362Z" fill="#31101C"/>
<path d="M1.00002 31.0454C0.115442 31.0766 -0.358473 29.8732 0.326796 29.2969L6.41138 23.7967C7.36222 22.9096 8.73878 24.4257 7.75782 25.2862L4.4379 28.2868L10.9477 26.9082C12.2153 26.6206 12.6441 28.6211 11.3639 28.8732C11.1304 28.8998 1.23296 31.0615 1.00002 31.0454Z" fill="#31101C"/>
<path d="M16.7376 25.5452C16.4705 25.5452 16.214 25.4388 16.0257 25.249L9.71218 18.8969C8.78393 17.9641 8.27538 16.7251 8.2799 15.4083C8.25128 11.0507 13.7274 8.83522 16.7366 11.988C19.7502 8.83773 25.2198 11.0487 25.1932 15.4083C25.1977 16.7246 24.6887 17.9641 23.7604 18.8974L17.4499 25.2485C17.2612 25.4383 17.0046 25.5452 16.7376 25.5452ZM13.2088 12.5076C10.6726 12.4453 9.30152 15.7256 11.1364 17.4806L16.7376 23.1164L22.3362 17.4811C22.8864 16.9279 23.1881 16.1944 23.1851 15.4148C23.2368 12.8745 19.9425 11.5241 18.196 13.368C17.1563 14.4143 17.1588 14.4133 16.7366 14.4143C16.1703 14.4665 15.6452 13.6923 15.2772 13.368C14.7249 12.8128 13.9915 12.5076 13.2088 12.5076Z" fill="#31101C"/>
<path d="M33.2678 45.4004C25.9418 45.4004 19.9822 39.4404 19.9822 32.1148C19.9822 24.7927 25.9423 18.8351 33.2678 18.8351C40.5899 18.8351 46.547 24.7922 46.547 32.1148C46.547 35.0843 45.5384 38.001 43.707 40.3274C43.3641 40.7632 42.7336 40.839 42.2968 40.4951C41.8611 40.1522 41.7858 39.5212 42.1291 39.0849C43.6829 37.1109 44.5389 34.6354 44.5389 32.1143C44.5389 25.8992 39.483 20.8427 33.2678 20.8427C27.0492 20.8427 21.9903 25.8992 21.9903 32.1143C21.9903 38.3329 27.0497 43.3918 33.2678 43.3918C35.0516 43.3918 36.8212 42.9651 38.386 42.1588C38.879 41.9043 39.4845 42.0981 39.738 42.5911C39.9925 43.0836 39.7987 43.6895 39.3057 43.943C37.4578 44.8974 35.3698 45.4004 33.2678 45.4004Z" fill="#31101C"/>
<path d="M49.0009 46.2097C48.778 46.2283 38.861 44.063 38.6361 44.0379C37.3589 43.7859 37.7816 41.7858 39.0522 42.073L45.563 43.4515L42.2431 40.4499C41.2652 39.5925 42.6352 38.0713 43.5896 38.9604L49.6741 44.4606C50.3574 45.0354 49.887 46.2423 49.0009 46.2097Z" fill="#31101C"/>
<path d="M33.2633 40.7095C33.0083 40.7491 32.5916 40.4871 32.5489 40.4108C32.3085 40.1567 26.3037 34.1344 26.1762 33.9953C25.2675 33.0485 24.7806 31.8 24.8092 30.4811C24.8594 26.1707 30.2828 24.0296 33.2643 27.1522C36.2735 24.0005 41.7496 26.2139 41.7215 30.573C41.726 31.8893 41.217 33.1283 40.2887 34.0616L33.9757 40.4133C33.7869 40.603 33.5304 40.7095 33.2633 40.7095ZM29.7341 27.6718C27.2003 27.6105 25.8303 30.8913 27.6642 32.6454L33.2628 38.2812L38.8635 32.6454C39.4142 32.0922 39.7154 31.3587 39.7124 30.5795C39.7661 28.0418 36.4683 26.6868 34.7242 28.5313C34.3573 28.8556 33.8266 29.6322 33.2618 29.5785C32.8421 29.5775 32.8421 29.5775 31.8029 28.5308C31.2522 27.977 30.5167 27.6718 29.7341 27.6718Z" fill="#31101C"/>
</g>
<defs>
<clipPath id="clip0_12_61">
<rect width="50" height="50" fill="white"/>
</clipPath>
</defs>
</svg>
