<svg width="48" height="48" viewBox="0 0 48 48" fill="none" xmlns="http://www.w3.org/2000/svg">
<path d="M22 43.65L19.95 41.8C16.4167 38.5667 13.5 35.775 11.2 33.425C8.9 31.075 7.06667 28.975 5.7 27.125C4.33333 25.275 3.375 23.6 2.825 22.1C2.275 20.6 2 19.0833 2 17.55C2 14.55 3.00833 12.0417 5.025 10.025C7.04167 8.00833 9.53333 7 12.5 7C14.4 7 16.1583 7.45 17.775 8.35C19.3917 9.25 20.8 10.55 22 12.25C23.4 10.45 24.8833 9.125 26.45 8.275C28.0167 7.425 29.7 7 31.5 7C34.4667 7 36.9583 8.00833 38.975 10.025C40.9917 12.0417 42 14.55 42 17.55C42 19.0833 41.725 20.6 41.175 22.1C40.625 23.6 39.6667 25.275 38.3 27.125C36.9333 28.975 35.1 31.075 32.8 33.425C30.5 35.775 27.5833 38.5667 24.05 41.8L22 43.65ZM22 39.7C25.3667 36.6 28.1417 33.9417 30.325 31.725C32.5083 29.5083 34.2417 27.5667 35.525 25.9C36.8083 24.2333 37.7083 22.75 38.225 21.45C38.7417 20.15 39 18.85 39 17.55C39 15.35 38.3 13.5417 36.9 12.125C35.5 10.7083 33.7 10 31.5 10C29.8 10 28.2167 10.525 26.75 11.575C25.2833 12.625 24.1 14.1 23.2 16H20.75C19.8833 14.1333 18.7167 12.6667 17.25 11.6C15.7833 10.5333 14.2 10 12.5 10C10.3 10 8.5 10.7083 7.1 12.125C5.7 13.5417 5 15.35 5 17.55C5 18.85 5.25833 20.1583 5.775 21.475C6.29167 22.7917 7.19167 24.2917 8.475 25.975C9.75833 27.6583 11.5 29.6 13.7 31.8C15.9 34 18.6667 36.6333 22 39.7Z" fill="#690303"/>
<path d="M21.499 16.3143C21.499 18.6976 21.8645 21.0427 21.8645 23.4414C21.8645 24.8249 22.0395 26.0659 22.2299 27.4415C22.483 29.2688 23.1437 30.9586 23.1437 32.802C23.1437 33.0492 23.2583 33.6932 23.0523 33.8579C22.8552 34.0156 22.5954 34.2393 22.5954 34.4975C22.5954 34.7097 22.4681 35.1716 22.4025 35.4011C22.3522 35.5773 22.2299 36.1707 22.2299 36.0509" stroke="#690303" stroke-width="7" stroke-linecap="round"/>
<path d="M22.0952 39.3245C21.9044 39.3457 21.8355 39.6782 21.8355 39.8438" stroke="#690303" stroke-width="5" stroke-linecap="round"/>
<path d="M20.34 36.7233C19.885 36.6665 18.8744 35.517 18.5824 35.1416C18.0652 34.4766 17.5453 33.7513 17.073 33.0429C16.232 31.7813 15.2332 30.4289 14.199 29.2797C13.4201 28.4143 13.1241 27.2772 12.0693 26.6745C11.582 26.396 10.9946 25.4742 10.7046 24.9996C10.2734 24.2941 9.80147 23.5838 9.36063 22.8596C8.91788 22.1322 8.66632 21.2757 8.16138 20.6265C6.69866 18.7459 5.72148 15.0795 8.32679 13.6585C10.05 12.7185 11.8846 12.6732 13.7441 12.3351C14.824 12.1388 16.1814 12.193 16.949 13.1312C17.3713 13.6474 17.5222 14.2917 17.8381 14.8784C18.0468 15.2661 18.201 15.6766 18.3964 16.0673C18.7043 16.6833 17.8547 16.4395 17.3832 16.4395C15.4531 16.4395 13.6161 15.8812 11.6971 15.8812C10.8409 15.8812 10.1097 16.3844 10.6012 17.3493C11.4992 19.1119 13.6733 20.0401 15.1294 21.2882C15.7415 21.8128 16.2871 22.4354 16.8559 23.0043C17.0733 23.2217 17.7473 23.6189 17.8794 23.8831C18.7558 25.6358 15.0263 21.1954 13.6407 19.8098C12.6759 18.845 12.3593 21.8324 12.245 22.1979C11.8164 23.5696 13.0693 24.2769 14.0749 24.9996C15.3441 25.9118 16.4412 27.0558 17.5383 28.1528C18.3204 28.935 18.4333 30.2641 19.1821 31.0993C20.1153 32.1402 19.0321 30.3833 18.9443 29.7863C18.4665 26.5371 18.293 23.112 18.293 19.8305C18.293 18.6537 18.4252 17.5365 18.0138 16.4395C17.4932 15.0511 17.3625 17.004 17.3625 17.4733C17.3625 17.9263 17.3447 19.2249 16.8042 19.0447" stroke="#690303" stroke-width="5" stroke-linecap="round"/>
<path d="M12.7103 10.1124C12.2712 10.5027 11.6082 10.6591 11.1285 11.0428C10.6543 11.4222 10.3071 12.0186 9.77417 12.3041C7.52658 13.5082 7.23326 17.5547 7.31364 19.6444C7.3671 21.0346 6.25752 22.2066 7.31364 23.3248C7.72773 23.7633 7.86805 24.4383 8.33713 24.8136C8.70948 25.1114 8.79737 26.1237 9.17454 25.5579" stroke="#690303" stroke-width="5" stroke-linecap="round"/>
<path d="M24.434 36.7233C24.5099 36.1162 25.4303 35.2329 25.84 34.7487C26.5666 33.89 27.1509 33.0351 27.9697 32.2572C29.8224 30.4971 30.9805 28.3207 32.622 26.4057C33.3058 25.6079 33.9916 25.2916 34.4829 24.338C34.8809 23.5653 35.166 22.698 35.5994 21.9395C35.9937 21.2495 36.1515 20.3612 36.4885 19.603C36.6678 19.1995 36.7388 18.1029 37.0881 17.9282" stroke="#690303" stroke-width="5" stroke-linecap="round"/>
<path d="M36.902 16.9977C36.902 16.4083 37.0376 15.6664 36.7573 15.1368C36.4132 14.4869 35.8284 14.1155 35.4133 13.5447C34.5801 12.3991 32.6916 11.2095 31.2159 11.8803C30.6257 12.1485 29.9232 12.015 29.3654 12.4489C28.8045 12.8851 27.8713 13.2838 27.2253 13.6068C26.3327 14.0531 24.6201 15.0571 24.6201 16.2534" stroke="#690303" stroke-width="5" stroke-linecap="round"/>
<path d="M24.0618 17.9282C25.5487 19.601 25.5505 21.7207 25.5505 23.8004C25.5505 24.6867 25.4154 27.7235 26.2949 28.1632" stroke="#690303" stroke-width="5" stroke-linecap="round"/>
<path d="M26.6671 28.1632C26.6906 27.9745 27.1794 27.3827 27.3287 27.2121C27.8857 26.5755 28.5483 25.8533 28.9105 25.0927C29.7606 23.3074 31.1998 21.7358 31.981 19.9132C32.6085 18.449 32.622 17.313 32.622 15.6951" stroke="#690303" stroke-width="5" stroke-linecap="round"/>
<path d="M32.622 15.6951C32.1958 16.074 31.2989 16.4303 30.7507 16.6359C29.8629 16.9688 29.4276 18.0668 28.9829 18.8173C28.6863 19.3177 28.528 20.0508 28.528 20.6162C28.528 22.2334 27.5888 18.6036 27.5045 18.2383C27.3225 17.4499 26.8892 16.3207 27.5562 15.6538C28.3118 14.8981 26.0281 17.2694 25.7469 18.3004C25.5176 19.1412 25.1614 22.2929 26.1088 22.7665" stroke="#690303" stroke-width="5" stroke-linecap="round"/>
</svg>
