<svg width="50" height="50" viewBox="0 0 50 50" fill="none" xmlns="http://www.w3.org/2000/svg">
<path d="M47.8852 8.04141L40.9664 14.9602C40.7039 14.4094 40.4133 13.875 40.0766 13.3727L48.9899 4.4586L47.8852 3.35391L39.1125 12.1266C38.7289 11.6852 38.3149 11.2711 37.8735 10.8875L46.6461 2.11485L45.5414 1.01016L36.6281 9.92344C36.125 9.58673 35.5907 9.29532 35.0407 9.0336L41.9594 2.11485L40.8547 1.01016L33.4656 8.39923C32.2727 8.02032 31.0039 7.81251 29.6875 7.81251C23.8688 7.81251 18.8031 11.8766 17.5125 17.5149C11.9656 18.7914 7.81252 23.7586 7.81252 29.6875C7.81252 30.9781 8.01799 32.243 8.40315 33.4602L1.0094 40.8539L2.11409 41.9586L15.2063 28.8672C17.036 27.0383 18.2438 24.625 18.6188 22.0656C19.1328 21.9516 19.6656 21.8875 20.2117 21.8805C19.8563 25.1086 18.4313 28.1203 16.1211 30.4297L1.01018 45.5414L2.11487 46.6461L10.8758 37.8852C11.2594 38.3266 11.6735 38.7406 12.1149 39.1242L3.35393 47.8852L4.45862 48.9899L19.5703 33.8781C21.8805 31.5688 24.8922 30.143 28.1196 29.7875C28.1125 30.3352 28.0485 30.8688 27.9336 31.3844C25.3672 31.7602 22.9789 32.9469 21.1328 34.7938L8.04143 47.8852L9.14612 48.9899L16.5399 41.5961C17.7571 41.982 19.0219 42.1875 20.3125 42.1875C26.2414 42.1875 31.2086 38.0344 32.4852 32.4875C38.1235 31.1969 42.1875 26.1313 42.1875 20.3125C42.1875 18.9961 41.9797 17.7274 41.6008 16.5352L48.9899 9.1461L47.8852 8.04141ZM9.37502 29.6875C9.37502 23.6563 14.2813 18.75 20.3125 18.75C23.5438 18.75 26.5821 17.4914 28.8672 15.2063L31.3828 12.6906C32.0242 12.8328 32.6336 13.0563 33.2055 13.3461L30.4297 16.1219C27.7274 18.8242 24.1344 20.3125 20.3125 20.3125C15.143 20.3125 10.9375 24.518 10.9375 29.6875C10.9375 30.0758 10.9703 30.4625 11.0172 30.8469L9.67112 32.193C9.47971 31.3758 9.37502 30.5383 9.37502 29.6875ZM22.6516 16.918C23.8883 14.3625 26.4625 12.6399 29.35 12.5141L27.7625 14.1016C26.3367 15.5274 24.5711 16.4844 22.6516 16.918ZM14.1016 27.7625L12.5172 29.3469C12.6453 26.4016 14.4063 23.8805 16.9196 22.6609C16.4774 24.5805 15.4969 26.3664 14.1016 27.7625ZM12.0024 36.7586L13.0953 35.6656C13.4688 36.1172 13.8828 36.5313 14.3344 36.9047L13.2414 37.9977C12.7961 37.6172 12.3828 37.2039 12.0024 36.7586ZM18.4656 32.7734L15.4438 35.7953C14.9844 35.4297 14.5703 35.0156 14.2047 34.5563L17.2266 31.5344C19.8477 28.9133 21.4414 25.4774 21.7875 21.8031C25.4696 21.4656 28.8875 19.8734 31.5336 17.2266L34.5508 14.2094C35.0086 14.575 35.4242 14.9906 35.7899 15.4484L32.7727 18.4656C30.1258 21.1125 28.5336 24.5305 28.1961 28.2117C24.5227 28.5586 21.0867 30.1524 18.4656 32.7734ZM22.2375 35.8984C23.6453 34.4906 25.4164 33.5266 27.336 33.0867C26.1157 35.5969 23.5961 37.3547 20.6532 37.4828L22.2375 35.8984ZM20.3125 40.625C19.4617 40.625 18.6242 40.5203 17.8071 40.3289L19.1532 38.9828C19.5375 39.0297 19.9242 39.0625 20.3125 39.0625C25.4821 39.0625 29.6875 34.857 29.6875 29.6875C29.6875 25.8656 31.1758 22.2727 33.8781 19.5703L36.6539 16.7945C36.9438 17.3664 37.1672 17.9758 37.3094 18.6172L34.7938 21.1328C32.5086 23.418 31.25 26.4563 31.25 29.6875C31.25 35.7188 26.3438 40.625 20.3125 40.625ZM37.486 20.65C37.3602 23.5367 35.6367 26.1117 33.0821 27.3484C33.5157 25.4289 34.4727 23.6633 35.8985 22.2375L37.486 20.65ZM32.7555 30.8117C32.7891 30.4406 32.8125 30.0672 32.8125 29.6875C32.8125 29.5031 32.8297 29.3219 32.8391 29.1391C36.5321 27.8195 39.0625 24.2789 39.0625 20.3125C39.0625 15.143 34.8571 10.9375 29.6875 10.9375C25.7211 10.9375 22.1805 13.468 20.861 17.1609C20.6781 17.1703 20.4969 17.1875 20.3125 17.1875C19.9328 17.1875 19.5594 17.2109 19.1883 17.2445C20.5328 12.6352 24.811 9.37501 29.6875 9.37501C35.7188 9.37501 40.625 14.2813 40.625 20.3125C40.625 25.1891 37.3649 29.4672 32.7555 30.8117Z" fill="#31101C"/>
</svg>
