<svg width="50" height="51" viewBox="0 0 50 51" fill="none" xmlns="http://www.w3.org/2000/svg">
<path d="M7.42188 37.987V21.776" stroke="#31101C" stroke-width="2" stroke-miterlimit="10" stroke-linecap="round" stroke-linejoin="round"/>
<path d="M42.5781 21.7604V38.0074" stroke="#31101C" stroke-width="2" stroke-miterlimit="10" stroke-linecap="round" stroke-linejoin="round"/>
<mask id="mask0_10_11" style="mask-type:luminance" maskUnits="userSpaceOnUse" x="0" y="0" width="50" height="51">
<path d="M0 0.666626H50V50.6666H0V0.666626Z" fill="white"/>
</mask>
<g mask="url(#mask0_10_11)">
<path d="M25 25.1783C25 25.1783 25.9375 21.7604 28.9063 21.7604C31.2188 21.7604 32.8125 23.7203 32.8125 26.0416C32.8125 29.2526 29.6338 31.3785 25 35.4323C20.3662 31.3785 17.1875 29.2526 17.1875 26.0416C17.1875 23.7203 18.7813 21.7604 21.0938 21.7604C24.0625 21.7604 25 25.1783 25 25.1783Z" stroke="#31101C" stroke-width="2" stroke-miterlimit="10" stroke-linecap="round" stroke-linejoin="round"/>
<path d="M36.7188 9.88341V1.64317H42.5781V14.3834" stroke="#31101C" stroke-width="2" stroke-miterlimit="10" stroke-linecap="round" stroke-linejoin="round"/>
<path d="M34.375 49.6901C32.7568 49.6901 31.4453 48.3785 31.4453 46.7604C31.4453 46.4166 31.5049 46.0885 31.6143 45.7838C31.9111 44.9518 32.5781 44.2965 33.416 44.0045C33.4131 43.9459 33.3984 43.8903 33.3984 43.8307C33.3984 43.1198 33.5889 42.4528 33.9209 41.8776C34.5967 40.7096 35.8594 39.9244 37.3047 39.9244C37.6172 39.9244 37.917 39.9703 38.208 40.0397C39.0928 38.7916 40.541 37.9713 42.1875 37.9713C42.3193 37.9713 42.4492 37.9762 42.5781 37.9869C44.9356 38.1744 46.8008 40.0455 47.0244 42.3942C48.2119 43.0641 49.0234 44.3229 49.0234 45.7838C49.0234 47.941 47.2744 49.6901 45.1172 49.6901H4.88281C2.72559 49.6901 0.976562 47.941 0.976562 45.7838C0.976562 44.3229 1.78809 43.0641 2.97559 42.3942C3.19922 40.0455 5.06445 38.1744 7.42188 37.9869C7.55078 37.9762 7.68066 37.9713 7.8125 37.9713C9.45899 37.9713 10.9072 38.7916 11.792 40.0397C12.083 39.9703 12.3828 39.9244 12.6953 39.9244C14.1406 39.9244 15.4033 40.7096 16.0791 41.8776C16.4111 42.4528 16.6016 43.1198 16.6016 43.8307C16.6016 43.8903 16.5869 43.9459 16.584 44.0045C17.4219 44.2965 18.0889 44.9518 18.3857 45.7838C18.4951 46.0885 18.5547 46.4166 18.5547 46.7604C18.5547 48.3785 17.2432 49.6901 15.625 49.6901" stroke="#31101C" stroke-width="2" stroke-miterlimit="10" stroke-linecap="round" stroke-linejoin="round"/>
<path d="M31.6133 45.7838H18.3867" stroke="#31101C" stroke-width="2" stroke-miterlimit="10" stroke-linecap="round" stroke-linejoin="round"/>
<path d="M33.9209 41.8776H16.0791" stroke="#31101C" stroke-width="2" stroke-miterlimit="10" stroke-linecap="round" stroke-linejoin="round"/>
<path d="M13.2813 10.6276C13.2813 11.1668 12.844 11.6041 12.3047 11.6041C11.7653 11.6041 11.3281 11.1668 11.3281 10.6276C11.3281 10.0883 11.7653 9.651 12.3047 9.651C12.844 9.651 13.2813 10.0883 13.2813 10.6276Z" fill="black"/>
<path d="M8.82503 13.3087L2.13285 18.4518C1.26566 19.1129 0.777376 20.2457 1.05374 21.4674C1.33597 22.7155 2.14066 23.5563 3.61331 23.6989C4.39261 23.775 5.11624 23.5455 5.67972 23.1159C5.68167 23.1149 6.34378 22.6051 7.42191 21.776C12.1709 18.1237 24.9903 8.26332 25 8.25649L44.3203 23.1159C44.8125 23.4909 45.4268 23.7135 46.0938 23.7135C47.7119 23.7135 49.0235 22.402 49.0235 20.7838C49.0235 19.8327 48.5703 18.987 47.8672 18.4518L26.7735 2.24086C26.2813 1.86586 25.667 1.6432 25 1.6432C24.333 1.6432 23.7188 1.86586 23.2266 2.24086L15.7911 7.95522" stroke="#31101C" stroke-width="2" stroke-miterlimit="10" stroke-linecap="round" stroke-linejoin="round"/>
</g>
</svg>
