<svg width="50" height="50" viewBox="0 0 50 50" fill="none" xmlns="http://www.w3.org/2000/svg">
<path d="M32.0667 40.4058C32.5048 40.4069 32.9387 40.3209 33.3433 40.1528C33.7478 39.9847 34.115 39.7379 34.4233 39.4267L35.0125 38.835C35.3466 38.4986 35.6055 38.0951 35.772 37.6512C35.9385 37.2073 36.0088 36.7331 35.9783 36.26C36.4507 36.2894 36.9239 36.2179 37.3664 36.0502C37.809 35.8825 38.2107 35.6225 38.545 35.2875L39.1342 34.6958C39.4683 34.3595 39.7272 33.956 39.8937 33.5121C40.0602 33.0682 40.1305 32.594 40.1 32.1208C40.5723 32.1487 41.0451 32.0764 41.4874 31.9087C41.9298 31.7409 42.3317 31.4815 42.6667 31.1475L43.255 30.5558L45.61 28.1908C48.4169 25.3608 49.9918 21.5363 49.9918 17.5504C49.9918 13.5645 48.4169 9.74003 45.61 6.91C42.9041 4.18772 39.2546 2.61077 35.4177 2.50589C31.5808 2.40102 27.8506 3.77626 25 6.34667C22.1493 3.77629 18.4191 2.40101 14.5821 2.50572C10.7451 2.61044 7.09544 4.18713 4.38917 6.90917C1.58224 9.73934 0.00726318 13.5639 0.00726318 17.55C0.00726318 21.5361 1.58224 25.3607 4.38917 28.1908L9.68833 33.5133L10.2775 34.1042C10.5856 34.4155 10.9526 34.6624 11.357 34.8305C11.7615 34.9986 12.1953 35.0845 12.6333 35.0833C12.71 35.0833 12.7833 35.0658 12.8592 35.0608C12.8234 35.5355 12.8896 36.0123 13.0535 36.4592C13.2173 36.9061 13.475 37.3127 13.8092 37.6517L14.3983 38.2433C14.7066 38.5544 15.0736 38.8012 15.478 38.9693C15.8824 39.1374 16.3162 39.2234 16.7542 39.2225C16.8308 39.2225 16.9042 39.2058 16.9792 39.2008C16.9433 39.6752 17.0097 40.1518 17.1739 40.5983C17.3381 41.0449 17.5962 41.451 17.9308 41.7892L18.5192 42.3808C18.8275 42.6923 19.1948 42.9394 19.5995 43.1076C20.0042 43.2758 20.4384 43.3619 20.8767 43.3608C20.9525 43.3608 21.0258 43.3442 21.1017 43.3392C21.0666 43.8126 21.1332 44.2881 21.297 44.7337C21.4609 45.1792 21.7182 45.5846 22.0517 45.9225L22.6425 46.5158C22.9505 46.8281 23.3176 47.0759 23.7223 47.2449C24.1271 47.4139 24.5614 47.5006 25 47.5C25.4379 47.5011 25.8715 47.415 26.2758 47.2469C26.6801 47.0788 27.047 46.832 27.355 46.5208L30.8858 42.975C31.2207 42.6365 31.4789 42.2299 31.6431 41.783C31.8073 41.336 31.8736 40.859 31.8375 40.3842C31.9133 40.3892 31.9875 40.4058 32.0642 40.4058H32.0667ZM44.4292 8.08334C46.9261 10.6003 48.3271 14.0021 48.3271 17.5475C48.3271 21.0929 46.9261 24.4947 44.4292 27.0117L44.105 27.3375C43.9602 26.7698 43.6671 26.2507 43.2558 25.8333L30.3008 12.8233C29.8252 12.367 29.1916 12.1122 28.5325 12.1122C27.8734 12.1122 27.2398 12.367 26.7642 12.8233L20.2875 19.3275C19.6547 19.9354 18.8112 20.2749 17.9338 20.2749C17.0563 20.2749 16.2128 19.9354 15.58 19.3275C15.4232 19.1695 15.3351 18.9559 15.3351 18.7333C15.3351 18.5107 15.4232 18.2971 15.58 18.1392L25.5908 8.08334C26.8248 6.84208 28.2921 5.85704 29.9081 5.18487C31.5242 4.51269 33.2572 4.16666 35.0075 4.16666C36.7578 4.16666 38.4908 4.51269 40.1069 5.18487C41.7229 5.85704 43.1902 6.84208 44.4242 8.08334H44.4292ZM5.57083 8.08334C7.95963 5.67515 11.181 4.27481 14.5714 4.17078C17.9619 4.06675 21.2631 5.26696 23.795 7.52417L14.4 16.9617C13.9325 17.4325 13.6702 18.069 13.6702 18.7325C13.6702 19.396 13.9325 20.0325 14.4 20.5033C14.8634 20.969 15.4143 21.3384 16.0209 21.5906C16.6276 21.8427 17.2781 21.9725 17.935 21.9725C18.5919 21.9725 19.2424 21.8427 19.8491 21.5906C20.4557 21.3384 21.0066 20.969 21.47 20.5033L27.9458 14C28.1031 13.8477 28.3135 13.7625 28.5325 13.7625C28.7515 13.7625 28.9619 13.8477 29.1192 14L42.0742 27.0083C42.3873 27.3234 42.563 27.7496 42.563 28.1938C42.563 28.638 42.3873 29.0641 42.0742 29.3792L41.485 29.9708C41.1692 30.2748 40.7479 30.4446 40.3096 30.4446C39.8713 30.4446 39.45 30.2748 39.1342 29.9708L29.7125 20.5092C29.5565 20.3525 29.3446 20.2642 29.1234 20.2637C28.9023 20.2632 28.69 20.3506 28.5333 20.5067C28.3766 20.6627 28.2883 20.8746 28.2879 21.0957C28.2874 21.3169 28.3748 21.5291 28.5308 21.6858L37.9525 31.1475C38.2655 31.4628 38.4411 31.8891 38.4411 32.3333C38.4411 32.7776 38.2655 33.2039 37.9525 33.5192L37.3642 34.1108C37.0481 34.4142 36.6269 34.5836 36.1887 34.5836C35.7506 34.5836 35.3294 34.4142 35.0133 34.1108L25.5908 24.6483C25.5136 24.5707 25.4218 24.5091 25.3207 24.467C25.2196 24.4249 25.1113 24.4031 25.0018 24.4029C24.8923 24.4026 24.7838 24.424 24.6826 24.4657C24.5813 24.5074 24.4893 24.5686 24.4117 24.6458C24.3341 24.7231 24.2725 24.8149 24.2303 24.916C24.1882 25.017 24.1664 25.1254 24.1662 25.2349C24.166 25.3444 24.1873 25.4529 24.229 25.5541C24.2707 25.6554 24.3319 25.7474 24.4092 25.825L33.8333 35.2875C34.1457 35.6026 34.321 36.0284 34.321 36.4721C34.321 36.9158 34.1457 37.3416 33.8333 37.6567L33.2442 38.2492C33.0902 38.4043 32.907 38.5275 32.7052 38.6115C32.5034 38.6955 32.2869 38.7388 32.0683 38.7388C31.8497 38.7388 31.6333 38.6955 31.4315 38.6115C31.2297 38.5275 31.0465 38.4043 30.8925 38.2492C30.8925 38.245 30.8817 38.2433 30.8767 38.2392L30.305 37.6558C29.9641 37.3281 29.5576 37.0763 29.1123 36.917C28.6671 36.7577 28.1931 36.6945 27.7217 36.7317C27.7628 36.2522 27.6993 35.7695 27.5355 35.317C27.3718 34.8645 27.1117 34.453 26.7733 34.1108L26.185 33.5183C25.8765 33.207 25.5093 32.9601 25.1046 32.7918C24.6999 32.6236 24.2658 32.5374 23.8275 32.5383C23.7508 32.5383 23.6775 32.555 23.6017 32.56C23.6377 32.0856 23.5716 31.609 23.4077 31.1623C23.2438 30.7156 22.986 30.3093 22.6517 29.9708L22.0625 29.3783C21.7224 29.0494 21.3161 28.7966 20.8706 28.6368C20.4252 28.477 19.9509 28.4139 19.4792 28.4517C19.519 27.9721 19.4543 27.4896 19.2894 27.0376C19.1245 26.5855 18.8634 26.1746 18.5242 25.8333L17.9358 25.2408C17.6268 24.9302 17.2595 24.6836 16.8549 24.5154C16.4503 24.3472 16.0165 24.2606 15.5783 24.2606C15.1402 24.2606 14.7063 24.3472 14.3017 24.5154C13.8972 24.6836 13.5298 24.9302 13.2208 25.2408L9.68833 28.7883C9.27677 29.2073 8.98399 29.7281 8.84 30.2975L5.57083 27.0142C3.07337 24.497 1.67195 21.0947 1.67195 17.5488C1.67195 14.0028 3.07337 10.6006 5.57083 8.08334ZM12.6342 33.4167C12.4157 33.4171 12.1993 33.374 11.9975 33.2901C11.7958 33.2061 11.6128 33.0828 11.4592 32.9275L10.8708 32.3367C10.5578 32.0212 10.3822 31.5948 10.3822 31.1504C10.3822 30.706 10.5578 30.2796 10.8708 29.9642L14.4025 26.4167C14.5565 26.2615 14.7397 26.1384 14.9415 26.0543C15.1433 25.9703 15.3597 25.927 15.5783 25.927C15.7969 25.927 16.0134 25.9703 16.2152 26.0543C16.417 26.1384 16.6002 26.2615 16.7542 26.4167L17.3433 27.0092C17.6563 27.3245 17.8319 27.7507 17.8319 28.195C17.8319 28.6393 17.6563 29.0655 17.3433 29.3808L13.81 32.9283C13.6562 33.0837 13.473 33.2068 13.2712 33.2907C13.0693 33.3745 12.8528 33.4173 12.6342 33.4167ZM16.7558 37.5558C16.5373 37.5563 16.3209 37.5132 16.1192 37.4292C15.9175 37.3453 15.7345 37.222 15.5808 37.0667L14.9917 36.4758C14.6787 36.1604 14.503 35.734 14.503 35.2896C14.503 34.8452 14.6787 34.4188 14.9917 34.1033L18.5242 30.5558C18.6784 30.401 18.8617 30.2781 19.0636 30.1942C19.2654 30.1103 19.4818 30.0672 19.7004 30.0672C19.919 30.0672 20.1354 30.1103 20.3373 30.1942C20.5391 30.2781 20.7224 30.401 20.8767 30.5558L21.465 31.1483C21.778 31.4638 21.9537 31.8902 21.9537 32.3346C21.9537 32.779 21.778 33.2054 21.465 33.5208L17.9325 37.0667C17.7787 37.2224 17.5955 37.3459 17.3934 37.43C17.1914 37.5141 16.9747 37.5564 16.7558 37.5558ZM19.7025 41.2058L19.1133 40.6133C18.8 40.2984 18.6241 39.8722 18.6241 39.4279C18.6241 38.9837 18.8 38.5575 19.1133 38.2425L22.6458 34.695C22.962 34.3914 23.3833 34.2218 23.8217 34.2218C24.26 34.2218 24.6814 34.3914 24.9975 34.695L25.5867 35.2875C25.8988 35.6024 26.0739 36.0279 26.0739 36.4713C26.0739 36.9146 25.8988 37.3401 25.5867 37.655L25.5817 37.6592L22.0508 41.205V41.2092C21.7347 41.5119 21.3138 41.6806 20.8762 41.6802C20.4385 41.6797 20.018 41.51 19.7025 41.2067V41.2058ZM29.7025 41.7975L26.175 45.345C26.0211 45.4999 25.8381 45.6228 25.6365 45.7067C25.4349 45.7906 25.2188 45.8337 25.0004 45.8337C24.7821 45.8337 24.5659 45.7906 24.3643 45.7067C24.1627 45.6228 23.9797 45.4999 23.8258 45.345L23.235 44.7525C22.9229 44.4376 22.7478 44.0121 22.7478 43.5688C22.7478 43.1254 22.9229 42.6999 23.235 42.385L26.7683 38.8333C26.9214 38.6799 27.1032 38.5582 27.3034 38.4753C27.5037 38.3923 27.7183 38.3497 27.935 38.35C28.3765 38.3492 28.8003 38.5236 29.1133 38.835L29.6967 39.4317C30.0101 39.7451 30.187 40.1698 30.1887 40.6131C30.1904 41.0564 30.0169 41.4825 29.7058 41.7983L29.7025 41.7975Z" fill="#31101C"/>
</svg>
