<svg width="40" height="40" viewBox="0 0 40 40" fill="none" xmlns="http://www.w3.org/2000/svg">
<path d="M27.3 17.35C28.0667 17.35 28.7083 17.0833 29.225 16.55C29.7417 16.0167 30 15.3833 30 14.65C30 13.8833 29.7417 13.2417 29.225 12.725C28.7083 12.2083 28.0667 11.95 27.3 11.95C26.5667 11.95 25.9333 12.2083 25.4 12.725C24.8667 13.2417 24.6 13.8833 24.6 14.65C24.6 15.3833 24.8667 16.0167 25.4 16.55C25.9333 17.0833 26.5667 17.35 27.3 17.35ZM12.7 17.35C13.4667 17.35 14.1083 17.0833 14.625 16.55C15.1417 16.0167 15.4 15.3833 15.4 14.65C15.4 13.8833 15.1417 13.2417 14.625 12.725C14.1083 12.2083 13.4667 11.95 12.7 11.95C11.9667 11.95 11.3333 12.2083 10.8 12.725C10.2667 13.2417 10 13.8833 10 14.65C10 15.3833 10.2667 16.0167 10.8 16.55C11.3333 17.0833 11.9667 17.35 12.7 17.35ZM20 30.95C22.2 30.95 24.225 30.3583 26.075 29.175C27.925 27.9917 29.2667 26.3833 30.1 24.35H9.9C10.7667 26.3833 12.1167 27.9917 13.95 29.175C15.7833 30.3583 17.8 30.95 20 30.95ZM20 40C17.2333 40 14.6333 39.475 12.2 38.425C9.76667 37.375 7.65 35.95 5.85 34.15C4.05 32.35 2.625 30.2333 1.575 27.8C0.525 25.3667 0 22.7667 0 20C0 17.2333 0.525 14.6333 1.575 12.2C2.625 9.76667 4.05 7.65 5.85 5.85C7.65 4.05 9.76667 2.625 12.2 1.575C14.6333 0.525 17.2333 0 20 0C22.7667 0 25.3667 0.525 27.8 1.575C30.2333 2.625 32.35 4.05 34.15 5.85C35.95 7.65 37.375 9.76667 38.425 12.2C39.475 14.6333 40 17.2333 40 20C40 22.7667 39.475 25.3667 38.425 27.8C37.375 30.2333 35.95 32.35 34.15 34.15C32.35 35.95 30.2333 37.375 27.8 38.425C25.3667 39.475 22.7667 40 20 40ZM20 37C24.7333 37 28.75 35.35 32.05 32.05C35.35 28.75 37 24.7333 37 20C37 15.2667 35.35 11.25 32.05 7.95C28.75 4.65 24.7333 3 20 3C15.2667 3 11.25 4.65 7.95 7.95C4.65 11.25 3 15.2667 3 20C3 24.7333 4.65 28.75 7.95 32.05C11.25 35.35 15.2667 37 20 37Z" fill="#31101C"/>
</svg>
