<svg width="50" height="50" viewBox="0 0 50 50" fill="none" xmlns="http://www.w3.org/2000/svg">
<path d="M2.34375 46.0938H47.6562C47.8635 46.0938 48.0622 46.0114 48.2087 45.8649C48.3552 45.7184 48.4375 45.5197 48.4375 45.3125V4.6875C48.4375 4.4803 48.3552 4.28159 48.2087 4.13507C48.0622 3.98856 47.8635 3.90625 47.6562 3.90625H2.34375C2.13655 3.90625 1.93784 3.98856 1.79132 4.13507C1.64481 4.28159 1.5625 4.4803 1.5625 4.6875V45.3125C1.5625 45.5197 1.64481 45.7184 1.79132 45.8649C1.93784 46.0114 2.13655 46.0938 2.34375 46.0938ZM3.125 44.5312V41.4062H46.875V44.5312H3.125ZM46.875 5.46875V39.8438H3.125V5.46875H46.875Z" fill="#31101C"/>
<path d="M4.85211 30.9484C4.91178 31.0252 6.35289 32.8512 9.57789 34.6653C14.891 37.6539 20.897 38.2812 25 38.2812C32.4334 38.2812 37.4895 36.3148 40.422 34.6653C43.647 32.8516 45.0879 31.0254 45.1478 30.9484C45.2372 30.8335 45.2927 30.6959 45.3081 30.5512C45.3234 30.4064 45.298 30.2602 45.2347 30.1291L34.2972 7.47285C34.2475 7.36994 34.1758 7.27919 34.0871 7.20701C33.9985 7.13483 33.8951 7.08298 33.7843 7.05511C33.6734 7.02725 33.5578 7.02405 33.4455 7.04575C33.3333 7.06744 33.2272 7.11349 33.1347 7.18066C30.4193 9.15518 27.6826 10.1563 25 10.1563C22.3173 10.1563 19.5806 9.15518 16.8657 7.18066C16.7732 7.11348 16.6671 7.06741 16.5548 7.0457C16.4426 7.024 16.327 7.02719 16.2161 7.05506C16.1052 7.08292 16.0018 7.13478 15.9132 7.20697C15.8245 7.27916 15.7528 7.36992 15.7031 7.47285L4.76559 30.1291C4.70224 30.2602 4.67678 30.4063 4.69206 30.5511C4.70735 30.6959 4.76279 30.8335 4.85211 30.9484ZM16.7117 8.97676C22.2157 12.6358 27.7842 12.6358 33.2882 8.97676L43.6007 30.3394C43.0459 30.9219 41.7422 32.1421 39.5715 33.3505C36.8116 34.8871 32.0427 36.7187 25 36.7187C17.9572 36.7187 13.1883 34.8871 10.4279 33.3505C8.25641 32.1417 6.9527 30.921 6.3986 30.3395L16.7117 8.97676Z" fill="#31101C"/>
<path d="M41.4062 8.59375H44.5312C44.7385 8.59375 44.9372 8.51144 45.0837 8.36493C45.2302 8.21841 45.3125 8.0197 45.3125 7.8125C45.3125 7.6053 45.2302 7.40659 45.0837 7.26007C44.9372 7.11356 44.7385 7.03125 44.5312 7.03125H41.4062C41.199 7.03125 41.0003 7.11356 40.8538 7.26007C40.7073 7.40659 40.625 7.6053 40.625 7.8125C40.625 8.0197 40.7073 8.21841 40.8538 8.36493C41.0003 8.51144 41.199 8.59375 41.4062 8.59375Z" fill="#31101C"/>
<path d="M39.8438 11.7188H44.5312C44.7385 11.7188 44.9372 11.6364 45.0837 11.4899C45.2302 11.3434 45.3125 11.1447 45.3125 10.9375C45.3125 10.7303 45.2302 10.5316 45.0837 10.3851C44.9372 10.2386 44.7385 10.1562 44.5312 10.1562H39.8438C39.6365 10.1562 39.4378 10.2386 39.2913 10.3851C39.1448 10.5316 39.0625 10.7303 39.0625 10.9375C39.0625 11.1447 39.1448 11.3434 39.2913 11.4899C39.4378 11.6364 39.6365 11.7188 39.8438 11.7188Z" fill="#31101C"/>
<path d="M5.46875 23.4375C5.67595 23.4375 5.87466 23.3552 6.02118 23.2087C6.16769 23.0622 6.25 22.8635 6.25 22.6562V21.0938H7.03125C7.23845 21.0938 7.43716 21.0114 7.58368 20.8649C7.73019 20.7184 7.8125 20.5197 7.8125 20.3125C7.8125 20.1053 7.73019 19.9066 7.58368 19.7601C7.43716 19.6136 7.23845 19.5312 7.03125 19.5312H6.25V17.9688H8.59375C8.80095 17.9688 8.99966 17.8864 9.14618 17.7399C9.29269 17.5934 9.375 17.3947 9.375 17.1875C9.375 16.9803 9.29269 16.7816 9.14618 16.6351C8.99966 16.4886 8.80095 16.4062 8.59375 16.4062H6.25V14.8438H7.03125C7.23845 14.8438 7.43716 14.7614 7.58368 14.6149C7.73019 14.4684 7.8125 14.2697 7.8125 14.0625C7.8125 13.8553 7.73019 13.6566 7.58368 13.5101C7.43716 13.3636 7.23845 13.2812 7.03125 13.2812H6.25V11.7188H8.59375C8.80095 11.7188 8.99966 11.6364 9.14618 11.4899C9.29269 11.3434 9.375 11.1447 9.375 10.9375C9.375 10.7303 9.29269 10.5316 9.14618 10.3851C8.99966 10.2386 8.80095 10.1562 8.59375 10.1562H6.25V8.59375H7.03125C7.23845 8.59375 7.43716 8.51144 7.58368 8.36493C7.73019 8.21841 7.8125 8.0197 7.8125 7.8125C7.8125 7.6053 7.73019 7.40659 7.58368 7.26007C7.43716 7.11356 7.23845 7.03125 7.03125 7.03125H5.46875C5.26155 7.03125 5.06284 7.11356 4.91632 7.26007C4.76981 7.40659 4.6875 7.6053 4.6875 7.8125V22.6562C4.6875 22.8635 4.76981 23.0622 4.91632 23.2087C5.06284 23.3552 5.26155 23.4375 5.46875 23.4375Z" fill="#31101C"/>
<path d="M38.1987 22.3068C36.5874 19.0842 33.9651 17.8027 31.0029 18.7901C29.1932 19.3934 28.4421 20.8454 28.21 21.9205C27.8338 21.9697 27.4653 22.0654 27.1128 22.2055L26.98 21.5414C26.8498 20.9016 26.4713 20.3396 25.9275 19.9784C25.3836 19.6172 24.7188 19.4863 24.0786 19.6144C23.4384 19.7426 22.8752 20.1193 22.5123 20.662C22.1494 21.2047 22.0164 21.8692 22.1426 22.5098L22.3725 23.659C21.6295 23.457 20.8423 23.4891 20.1182 23.7507C19.7396 22.6048 18.884 21.9037 18.2392 21.5191L18.5723 20.8529C18.7124 20.5763 18.7965 20.2747 18.8197 19.9655C18.8429 19.6562 18.8047 19.3454 18.7074 19.051C18.6101 18.7566 18.4556 18.4842 18.2527 18.2497C18.0498 18.0152 17.8026 17.823 17.5252 17.6844C17.2479 17.5457 16.9458 17.4632 16.6365 17.4416C16.3271 17.42 16.0166 17.4598 15.7226 17.5586C15.4287 17.6575 15.1572 17.8134 14.9237 18.0175C14.6903 18.2216 14.4994 18.4699 14.3622 18.748L13.0859 21.2995C12.8657 21.7394 12.7896 22.2375 12.8685 22.7231C12.9473 23.2087 13.1772 23.6571 13.5254 24.0046L14.5508 25.03C13.7974 25.9367 12.5 27.7754 12.5 29.6872C12.5 32.21 15.3645 35.156 23.4375 35.156C29.3911 35.156 31.2609 32.4762 31.8078 31.2341C34.4289 31.0864 36.6027 29.8946 37.8274 27.9131C38.91 26.1621 39.0527 24.0137 38.1987 22.3068ZM36.4982 27.092C35.4785 28.7414 33.5659 29.6875 31.25 29.6875C31.069 29.6832 30.8925 29.7437 30.7522 29.8581C30.6119 29.9724 30.517 30.1331 30.4847 30.3112C30.4367 30.511 29.593 33.5938 23.4375 33.5938C16.9963 33.5938 14.0625 31.5688 14.0625 29.6875C14.0625 28.8908 14.4167 27.9348 15.0868 26.9228C15.4093 26.4348 15.7743 25.9762 16.1774 25.5524C16.25 25.4799 16.3075 25.3938 16.3468 25.299C16.3861 25.2042 16.4063 25.1026 16.4063 25C16.4063 24.8974 16.3861 24.7958 16.3468 24.701C16.3075 24.6062 16.25 24.5201 16.1774 24.4476L14.6301 22.9004C14.514 22.7845 14.4374 22.635 14.4111 22.4731C14.3848 22.3112 14.4102 22.1452 14.4836 21.9985L15.7598 19.4463C15.8247 19.3149 15.925 19.2043 16.0495 19.1269C16.174 19.0496 16.3176 19.0086 16.4642 19.0086C16.53 19.0086 16.5956 19.0168 16.6595 19.0328C16.7744 19.0615 16.8814 19.1157 16.9725 19.1913C17.0637 19.2669 17.1367 19.3621 17.1862 19.4697C17.2357 19.5773 17.2604 19.6946 17.2585 19.8131C17.2566 19.9315 17.2281 20.048 17.1751 20.1539L16.4892 21.5258C16.4391 21.6259 16.4111 21.7356 16.4072 21.8474C16.4032 21.9593 16.4233 22.0707 16.4661 22.1741C16.509 22.2775 16.5735 22.3705 16.6554 22.4468C16.7373 22.5231 16.8346 22.5809 16.9408 22.6163C16.9576 22.622 18.5033 23.1557 18.7235 24.6418C17.9959 25.2656 17.4119 26.0397 17.0119 26.9107C16.6119 27.7817 16.4053 28.729 16.4062 29.6875C16.4062 29.8947 16.4886 30.0934 16.6351 30.2399C16.7816 30.3864 16.9803 30.4688 17.1875 30.4688C17.3947 30.4688 17.5934 30.3864 17.7399 30.2399C17.8864 30.0934 17.9688 29.8947 17.9688 29.6875C17.9663 28.9141 18.1414 28.1505 18.4806 27.4555C18.8197 26.7605 19.3138 26.1525 19.9249 25.6785C19.9609 25.6566 21.1944 24.6022 22.7569 25.4977L23.4611 28.3145C23.4885 28.4238 23.5391 28.5259 23.6096 28.6138C23.6801 28.7017 23.7688 28.7733 23.8696 28.8237L26.9946 30.3862C27.0865 30.4331 27.1867 30.4613 27.2895 30.4692C27.3923 30.4771 27.4957 30.4646 27.5936 30.4324C27.6916 30.4001 27.7822 30.3488 27.8602 30.2814C27.9382 30.214 28.0021 30.1319 28.0482 30.0397C28.0944 29.9474 28.1218 29.847 28.1289 29.7441C28.136 29.6413 28.1227 29.538 28.0897 29.4403C28.0567 29.3426 28.0047 29.2524 27.9367 29.1749C27.8687 29.0974 27.786 29.0342 27.6935 28.9888L24.8896 27.5869L23.6748 22.2028C23.6278 21.9677 23.6761 21.7235 23.8091 21.524C23.9421 21.3245 24.1489 21.186 24.3841 21.139C24.6192 21.0919 24.8634 21.1403 25.0629 21.2733C25.2624 21.4063 25.4009 21.6131 25.4479 21.8482L26.5858 26.752C26.6177 26.8795 26.6812 26.9968 26.7705 27.0933C26.8598 27.1897 26.972 27.262 27.0967 27.3036L29.4404 28.0849C29.538 28.1185 29.6414 28.1324 29.7444 28.1259C29.8474 28.1193 29.9481 28.0924 30.0407 28.0467C30.1333 28.001 30.2159 27.9374 30.2837 27.8595C30.3515 27.7817 30.4033 27.6912 30.4359 27.5933C30.4686 27.4953 30.4815 27.3919 30.4739 27.2889C30.4664 27.186 30.4385 27.0855 30.3918 26.9934C30.3452 26.9013 30.2808 26.8193 30.2023 26.7522C30.1238 26.6852 30.0328 26.6343 29.9346 26.6026L27.998 25.957L27.4512 23.7695C27.9018 23.5416 28.4014 23.4276 28.9062 23.4375C29.0085 23.4382 29.1099 23.4186 29.2046 23.3799C29.2993 23.3413 29.3855 23.2843 29.4581 23.2122C29.5307 23.1402 29.5883 23.0545 29.6277 22.9601C29.6671 22.8657 29.6874 22.7644 29.6875 22.6621C29.6886 22.5888 29.7353 20.8597 31.4971 20.2724C33.7047 19.5365 35.5392 20.4815 36.8013 23.0057C37.4144 24.2318 37.2982 25.7976 36.4982 27.0919V27.092Z" fill="#31101C"/>
</svg>
