<svg width="50" height="50" viewBox="0 0 50 50" fill="none" xmlns="http://www.w3.org/2000/svg">
<g clip-path="url(#clip0_9_4)">
<path d="M27.3773 13.0809L34.207 6.06641C34.3215 5.94507 34.3894 5.78716 34.3987 5.6206C34.408 5.45405 34.3581 5.28957 34.2578 5.15625L30.3516 0.257422C30.2865 0.178362 30.2051 0.114389 30.1129 0.0699383C30.0207 0.0254878 29.9199 0.0016235 29.8176 0L20.1824 0C20.0801 0.0016235 19.9793 0.0254878 19.8871 0.0699383C19.7949 0.114389 19.7135 0.178362 19.6484 0.257422L15.7422 5.15625C15.6421 5.28958 15.5923 5.45401 15.6017 5.62048C15.611 5.78695 15.6789 5.94475 15.7934 6.06602L22.6227 13.0809C17.9511 13.685 13.6847 16.0448 10.6902 19.6808C7.69563 23.3169 6.19754 27.9566 6.50022 32.6573C6.80291 37.358 8.88367 41.7672 12.3198 44.9892C15.7559 48.2112 20.2897 50.0043 25.0002 50.0043C29.7106 50.0043 34.2444 48.2112 37.6806 44.9892C41.1167 41.7672 43.1975 37.358 43.5002 32.6573C43.8028 27.9566 42.3047 23.3169 39.3102 19.6808C36.3157 16.0448 32.0489 13.685 27.3773 13.0809ZM20.2344 1.71289L23.3676 4.89922H17.6953L20.2344 1.71289ZM32.3047 4.89922H26.6309L29.7656 1.71289L32.3047 4.89922ZM26.8227 6.26641L25 11.5207L23.1773 6.26641H26.8227ZM28.268 6.26641H32.1027L26.1477 12.3828L28.268 6.26641ZM25 4.60938L21.8133 1.36719H28.1867L25 4.60938ZM21.7305 6.26797L23.8523 12.3828L17.8957 6.26641L21.7305 6.26797ZM25 48.6328C21.6039 48.6328 18.284 47.6257 15.4602 45.739C12.6365 43.8522 10.4356 41.1704 9.13597 38.0328C7.83633 34.8952 7.49629 31.4427 8.15884 28.1118C8.82139 24.7809 10.4568 21.7213 12.8582 19.3199C15.2596 16.9185 18.3192 15.2831 21.6501 14.6206C24.9809 13.958 28.4335 14.2981 31.5711 15.5977C34.7087 16.8973 37.3905 19.0982 39.2772 21.922C41.164 24.7457 42.1711 28.0656 42.1711 31.4617C42.1659 36.0142 40.3552 40.3787 37.1361 43.5978C33.917 46.8169 29.5525 48.6276 25 48.6328Z" fill="#31101C"/>
<path d="M25 15.9461C21.9314 15.9462 18.9317 16.8562 16.3803 18.561C13.8289 20.2659 11.8404 22.6891 10.6661 25.5241C9.49183 28.3591 9.18461 31.4787 9.78328 34.4883C10.382 37.4979 11.8596 40.2624 14.0295 42.4323C16.1993 44.6021 18.9638 46.0798 21.9734 46.6784C24.983 47.2771 28.1026 46.9699 30.9376 45.7956C33.7726 44.6213 36.1958 42.6328 37.9007 40.0814C39.6055 37.53 40.5155 34.5303 40.5156 31.4617C40.511 27.3481 38.8748 23.4044 35.9661 20.4957C33.0573 17.5869 29.1136 15.9507 25 15.9461ZM25 45.6094C22.2018 45.6093 19.4664 44.7795 17.1399 43.2248C14.8133 41.6702 12.9999 39.4605 11.9292 36.8753C10.8584 34.2901 10.5783 31.4454 11.1242 28.7009C11.6702 25.9565 13.0177 23.4356 14.9963 21.457C16.975 19.4784 19.4959 18.131 22.2404 17.5851C24.9848 17.0392 27.8295 17.3194 30.4147 18.3903C32.9999 19.4611 35.2095 21.2745 36.7641 23.6011C38.3187 25.9278 39.1484 28.6631 39.1484 31.4613C39.1443 35.2125 37.6523 38.8088 34.9999 41.4612C32.3474 44.1137 28.7511 45.6052 25 45.6094Z" fill="#31101C"/>
</g>
<defs>
<clipPath id="clip0_9_4">
<rect width="50" height="50" fill="white"/>
</clipPath>
</defs>
</svg>
