<svg width="61" height="51" viewBox="0 0 61 51" fill="none" xmlns="http://www.w3.org/2000/svg">
<path d="M24 42.65L21.95 40.8C18.4167 37.5667 15.5 34.775 13.2 32.425C10.9 30.075 9.06667 27.975 7.7 26.125C6.33333 24.275 5.375 22.6 4.825 21.1C4.275 19.6 4 18.0833 4 16.55C4 13.55 5.00833 11.0417 7.025 9.025C9.04167 7.00833 11.5333 6 14.5 6C16.4 6 18.1583 6.45 19.775 7.35C21.3917 8.25 22.8 9.55 24 11.25C25.4 9.45 26.8833 8.125 28.45 7.275C30.0167 6.425 31.7 6 33.5 6C36.4667 6 38.9583 7.00833 40.975 9.025C42.9917 11.0417 44 13.55 44 16.55C44 18.0833 43.725 19.6 43.175 21.1C42.625 22.6 41.6667 24.275 40.3 26.125C38.9333 27.975 37.1 30.075 34.8 32.425C32.5 34.775 29.5833 37.5667 26.05 40.8L24 42.65ZM24 38.7C27.3667 35.6 30.1417 32.9417 32.325 30.725C34.5083 28.5083 36.2417 26.5667 37.525 24.9C38.8083 23.2333 39.7083 21.75 40.225 20.45C40.7417 19.15 41 17.85 41 16.55C41 14.35 40.3 12.5417 38.9 11.125C37.5 9.70833 35.7 9 33.5 9C31.8 9 30.2167 9.525 28.75 10.575C27.2833 11.625 26.1 13.1 25.2 15H22.75C21.8833 13.1333 20.7167 11.6667 19.25 10.6C17.7833 9.53333 16.2 9 14.5 9C12.3 9 10.5 9.70833 9.1 11.125C7.7 12.5417 7 14.35 7 16.55C7 17.85 7.25833 19.1583 7.775 20.475C8.29167 21.7917 9.19167 23.2917 10.475 24.975C11.7583 26.6583 13.5 28.6 15.7 30.8C17.9 33 20.6667 35.6333 24 38.7Z" fill="#E19292"/>
<path d="M41 50.65L38.95 48.8C35.4167 45.5667 32.5 42.775 30.2 40.425C27.9 38.075 26.0667 35.975 24.7 34.125C23.3333 32.275 22.375 30.6 21.825 29.1C21.275 27.6 21 26.0833 21 24.55C21 21.55 22.0083 19.0417 24.025 17.025C26.0417 15.0083 28.5333 14 31.5 14C33.4 14 35.1583 14.45 36.775 15.35C38.3917 16.25 39.8 17.55 41 19.25C42.4 17.45 43.8833 16.125 45.45 15.275C47.0167 14.425 48.7 14 50.5 14C53.4667 14 55.9583 15.0083 57.975 17.025C59.9917 19.0417 61 21.55 61 24.55C61 26.0833 60.725 27.6 60.175 29.1C59.625 30.6 58.6667 32.275 57.3 34.125C55.9333 35.975 54.1 38.075 51.8 40.425C49.5 42.775 46.5833 45.5667 43.05 48.8L41 50.65ZM41 46.7C44.3667 43.6 47.1417 40.9417 49.325 38.725C51.5083 36.5083 53.2417 34.5667 54.525 32.9C55.8083 31.2333 56.7083 29.75 57.225 28.45C57.7417 27.15 58 25.85 58 24.55C58 22.35 57.3 20.5417 55.9 19.125C54.5 17.7083 52.7 17 50.5 17C48.8 17 47.2167 17.525 45.75 18.575C44.2833 19.625 43.1 21.1 42.2 23H39.75C38.8833 21.1333 37.7167 19.6667 36.25 18.6C34.7833 17.5333 33.2 17 31.5 17C29.3 17 27.5 17.7083 26.1 19.125C24.7 20.5417 24 22.35 24 24.55C24 25.85 24.2583 27.1583 24.775 28.475C25.2917 29.7917 26.1917 31.2917 27.475 32.975C28.7583 34.6583 30.5 36.6 32.7 38.8C34.9 41 37.6667 43.6333 41 46.7Z" fill="#690303"/>
</svg>
