<svg width="48" height="48" viewBox="0 0 48 48" fill="none" xmlns="http://www.w3.org/2000/svg">
<path d="M24 42.65L21.95 40.8C18.4167 37.5667 15.5 34.775 13.2 32.425C10.9 30.075 9.06667 27.975 7.7 26.125C6.33333 24.275 5.375 22.6 4.825 21.1C4.275 19.6 4 18.0833 4 16.55C4 13.55 5.00833 11.0417 7.025 9.025C9.04167 7.00833 11.5333 6 14.5 6C16.4 6 18.1583 6.45 19.775 7.35C21.3917 8.25 22.8 9.55 24 11.25C25.4 9.45 26.8833 8.125 28.45 7.275C30.0167 6.425 31.7 6 33.5 6C36.4667 6 38.9583 7.00833 40.975 9.025C42.9917 11.0417 44 13.55 44 16.55C44 18.0833 43.725 19.6 43.175 21.1C42.625 22.6 41.6667 24.275 40.3 26.125C38.9333 27.975 37.1 30.075 34.8 32.425C32.5 34.775 29.5833 37.5667 26.05 40.8L24 42.65ZM24 38.7C27.3667 35.6 30.1417 32.9417 32.325 30.725C34.5083 28.5083 36.2417 26.5667 37.525 24.9C38.8083 23.2333 39.7083 21.75 40.225 20.45C40.7417 19.15 41 17.85 41 16.55C41 14.35 40.3 12.5417 38.9 11.125C37.5 9.70833 35.7 9 33.5 9C31.8 9 30.2167 9.525 28.75 10.575C27.2833 11.625 26.1 13.1 25.2 15H22.75C21.8833 13.1333 20.7167 11.6667 19.25 10.6C17.7833 9.53333 16.2 9 14.5 9C12.3 9 10.5 9.70833 9.1 11.125C7.7 12.5417 7 14.35 7 16.55C7 17.85 7.25833 19.1583 7.775 20.475C8.29167 21.7917 9.19167 23.2917 10.475 24.975C11.7583 26.6583 13.5 28.6 15.7 30.8C17.9 33 20.6667 35.6333 24 38.7Z" fill="#E19292"/>
</svg>
